<svg preserveAspectRatio="none" width="100%" height="100%" overflow="visible" style="display: block;" viewBox="0 0 83 44" fill="none" xmlns="http://www.w3.org/2000/svg">
<path id="Vector" d="M46.1031 17.2117C49.2529 17.2117 51.5564 18.6667 52.5864 21.2713C53.1921 22.9075 52.1024 23.9379 50.4046 23.9379H41.5583C39.801 23.9379 38.7709 22.7858 39.6198 21.1496C40.8931 18.6046 43.0724 17.2092 46.1031 17.2092V17.2117ZM0 43.0292H7.87581V24.3625C7.87581 20.4842 10.482 17.8175 14.2971 17.8175C17.8118 17.8175 19.8719 20 19.8719 24.1813V43.0292H27.7478V21.8175C27.7478 15.3942 23.6895 11.0292 17.509 11.0292C12.2394 11.0292 11.2689 13.8771 9.02751 13.8771C8.17862 13.8771 7.39179 13.3929 7.39179 12.0596H0V43.0267V43.0292ZM56.404 33.09C52.4648 36.3625 50.5883 37.3333 47.1952 37.3333C43.137 37.3333 40.4712 35.5158 39.1978 32.3029C38.5326 30.6667 39.5602 29.5767 41.258 29.5767H60.8271V26.4854C60.8271 16.7896 55.6171 11.0317 46.3464 11.0317C37.0756 11.0317 30.7759 17.9417 30.7759 27.6971C30.7759 37.4525 37.2593 44 47.0116 44C52.3432 44 56.5231 42.3042 60.8246 37.9392L56.4015 33.09H56.404ZM75.1242 0V43.0292H83V0H75.1242ZM63.8553 0V43.0292H71.7311V0H63.8553Z" fill="white"/>
</svg>
