<svg preserveAspectRatio="none" width="100%" height="100%" overflow="visible" style="display: block;" viewBox="0 0 66 43" fill="none" xmlns="http://www.w3.org/2000/svg">
<path id="Vector" d="M23.2807 39.0734C23.2807 41.1864 25.08 43 27.1792 43C29.2784 43 31.0802 41.1888 31.0802 39.0734V33.2143C31.0802 32.0069 31.9209 31.1013 33 31.1013C34.0791 31.1013 34.9198 32.0069 34.9198 33.2143C34.9198 38.7096 39.1797 42.9975 44.6391 42.9975C50.0986 42.9975 54.3584 38.7096 54.3584 33.2143C54.3584 21.1969 44.939 11.7156 33 11.7156C21.061 11.7156 11.6416 21.1969 11.6416 33.2143C11.6416 34.4836 10.8009 35.3273 9.72179 35.3273C8.64268 35.3273 7.80201 34.4811 7.80201 33.2143C7.80201 19.022 18.8413 7.8508 33 7.8508C47.1587 7.8508 58.198 19.022 58.198 33.2143V39.0734C58.198 41.1864 59.9973 43 62.099 43C64.2007 43 66 41.1888 66 39.0734V33.2143C66 14.6129 51.48 0 33.0025 0C14.5249 0 0 14.6154 0 33.2168C0 38.7121 4.25989 43 9.71933 43C15.1788 43 19.4387 38.7121 19.4387 33.2168C19.4387 25.6085 25.4389 19.5688 32.9975 19.5688C40.5562 19.5688 46.5564 25.6085 46.5564 33.2168C46.5564 34.4861 45.7158 35.3298 44.6367 35.3298C43.5575 35.3298 42.7169 34.4836 42.7169 33.2168C42.7169 27.7215 38.457 23.4336 32.9975 23.4336C27.5381 23.4336 23.2782 27.7215 23.2782 33.2168V39.0758L23.2807 39.0734Z" fill="white"/>
</svg>
